<svg width="32" height="32" viewBox="0 0 32 32" fill="none" xmlns="http://www.w3.org/2000/svg">
<path d="M16.9405 8.55011C16.8341 9.70013 16.4938 10.8163 15.9405 11.8301C14.5129 14.591 12.8607 17.2299 11.0005 19.7201C9.14044 17.2299 7.48821 14.591 6.06055 11.8301C5.50733 10.8163 5.16704 9.70013 5.06055 8.55011C5.06055 6.97472 5.68637 5.46386 6.80033 4.34989C7.9143 3.23593 9.42516 2.61011 11.0005 2.61011C12.5759 2.61011 14.0868 3.23593 15.2008 4.34989C16.3147 5.46386 16.9405 6.97472 16.9405 8.55011V8.55011Z" stroke="#4FBC9C" stroke-width="2" stroke-linecap="round" stroke-linejoin="round"/>
<path d="M11 19.7201V25.7201L1 29.3901V13.6801L6.06 11.8301C7.48766 14.591 9.13989 17.2299 11 19.7201V19.7201Z" stroke="#4FBC9C" stroke-width="2" stroke-linecap="round" stroke-linejoin="round"/>
<path d="M31 25.75L21 29.39V13.68L31 10.04V25.75Z" stroke="#4FBC9C" stroke-width="2" stroke-linecap="round" stroke-linejoin="round"/>
<path d="M21 13.6801V29.3901L11 25.7501V19.7501C12.8601 17.2599 14.5123 14.621 15.94 11.8601L21 13.6801Z" stroke="#4FBC9C" stroke-width="2" stroke-linecap="round" stroke-linejoin="round"/>
<path d="M11.0005 11.1901C12.3481 11.1901 13.4405 10.0976 13.4405 8.75006C13.4405 7.40248 12.3481 6.31006 11.0005 6.31006C9.65297 6.31006 8.56055 7.40248 8.56055 8.75006C8.56055 10.0976 9.65297 11.1901 11.0005 11.1901Z" stroke="#4FBC9C" stroke-width="2" stroke-linecap="round" stroke-linejoin="round"/>
</svg>
