<svg width="32" height="32" viewBox="0 0 32 32" fill="none" xmlns="http://www.w3.org/2000/svg">
<path d="M2.5 3.3399C1.50729 5.82747 0.998196 8.48156 1 11.1599C1 20.8199 7.41 28.9099 16 30.9999C24.59 28.9099 31 20.8199 31 11.1599C31.0018 8.48156 30.4927 5.82747 29.5 3.3399C20.7704 0.219708 11.2296 0.219708 2.5 3.3399V3.3399Z" stroke="#4FBC9C" stroke-width="2" stroke-linecap="round" stroke-linejoin="round"/>
<path d="M6.71978 25.6V25C6.71582 23.7792 6.95302 22.5698 7.41773 21.441C7.88245 20.3121 8.56554 19.2862 9.42779 18.4221C10.29 17.558 11.3145 16.8727 12.4423 16.4056C13.5701 15.9384 14.7791 15.6986 15.9998 15.7V15.7C17.2205 15.6986 18.4295 15.9384 19.5573 16.4056C20.6851 16.8727 21.7095 17.558 22.5718 18.4221C23.434 19.2862 24.1171 20.3121 24.5818 21.441C25.0465 22.5698 25.2837 23.7792 25.2798 25V25.62" stroke="#4FBC9C" stroke-width="2" stroke-linecap="round" stroke-linejoin="round"/>
<path d="M16.0004 15.4001C18.563 15.4001 20.6404 13.3227 20.6404 10.7601C20.6404 8.19752 18.563 6.12012 16.0004 6.12012C13.4378 6.12012 11.3604 8.19752 11.3604 10.7601C11.3604 13.3227 13.4378 15.4001 16.0004 15.4001Z" stroke="#4FBC9C" stroke-width="2" stroke-linecap="round" stroke-linejoin="round"/>
</svg>
