<svg width="1139" height="23" viewBox="0 0 1139 23" fill="none" xmlns="http://www.w3.org/2000/svg">
<line y1="-0.5" x2="13.0294" y2="-0.5" transform="matrix(-0.707107 0.707107 0.707107 0.707107 1138.17 13.0645)" stroke="#ECECEC"/>
<line y1="-0.5" x2="30" y2="-0.5" transform="matrix(-0.707107 0.707107 0.707107 0.707107 1138.17 1.06445)" stroke="#ECECEC"/>
<line y1="-0.5" x2="30" y2="-0.5" transform="matrix(-0.707107 0.707107 0.707107 0.707107 1126.17 1.06445)" stroke="#ECECEC"/>
<line y1="-0.5" x2="30" y2="-0.5" transform="matrix(-0.707107 0.707107 0.707107 0.707107 1114.17 1.06445)" stroke="#ECECEC"/>
<line y1="-0.5" x2="30" y2="-0.5" transform="matrix(-0.707107 0.707107 0.707107 0.707107 1102.17 1.06445)" stroke="#ECECEC"/>
<line y1="-0.5" x2="30" y2="-0.5" transform="matrix(-0.707107 0.707107 0.707107 0.707107 1090.17 1.06445)" stroke="#ECECEC"/>
<line y1="-0.5" x2="30" y2="-0.5" transform="matrix(-0.707107 0.707107 0.707107 0.707107 1078.17 1.06445)" stroke="#ECECEC"/>
<line y1="-0.5" x2="30" y2="-0.5" transform="matrix(-0.707107 0.707107 0.707107 0.707107 1066.17 1.06445)" stroke="#ECECEC"/>
<line y1="-0.5" x2="30" y2="-0.5" transform="matrix(-0.707107 0.707107 0.707107 0.707107 1054.17 1.06445)" stroke="#ECECEC"/>
<line y1="-0.5" x2="30" y2="-0.5" transform="matrix(-0.707107 0.707107 0.707107 0.707107 1042.17 1.06445)" stroke="#ECECEC"/>
<line y1="-0.5" x2="30" y2="-0.5" transform="matrix(-0.707107 0.707107 0.707107 0.707107 1030.17 1.06445)" stroke="#ECECEC"/>
<line y1="-0.5" x2="30" y2="-0.5" transform="matrix(-0.707107 0.707107 0.707107 0.707107 1018.17 1.06445)" stroke="#ECECEC"/>
<line y1="-0.5" x2="30" y2="-0.5" transform="matrix(-0.707107 0.707107 0.707107 0.707107 1006.17 1.06445)" stroke="#ECECEC"/>
<line y1="-0.5" x2="30" y2="-0.5" transform="matrix(-0.707107 0.707107 0.707107 0.707107 994.171 1.06445)" stroke="#ECECEC"/>
<line y1="-0.5" x2="30" y2="-0.5" transform="matrix(-0.707107 0.707107 0.707107 0.707107 982.171 1.06445)" stroke="#ECECEC"/>
<line y1="-0.5" x2="30" y2="-0.5" transform="matrix(-0.707107 0.707107 0.707107 0.707107 970.171 1.06445)" stroke="#ECECEC"/>
<line y1="-0.5" x2="30" y2="-0.5" transform="matrix(-0.707107 0.707107 0.707107 0.707107 958.171 1.06445)" stroke="#ECECEC"/>
<line y1="-0.5" x2="30" y2="-0.5" transform="matrix(-0.707107 0.707107 0.707107 0.707107 946.171 1.06445)" stroke="#ECECEC"/>
<line y1="-0.5" x2="30" y2="-0.5" transform="matrix(-0.707107 0.707107 0.707107 0.707107 934.171 1.06445)" stroke="#ECECEC"/>
<line y1="-0.5" x2="30" y2="-0.5" transform="matrix(-0.707107 0.707107 0.707107 0.707107 922.171 1.06445)" stroke="#ECECEC"/>
<line y1="-0.5" x2="30" y2="-0.5" transform="matrix(-0.707107 0.707107 0.707107 0.707107 910.171 1.06445)" stroke="#ECECEC"/>
<line y1="-0.5" x2="30" y2="-0.5" transform="matrix(-0.707107 0.707107 0.707107 0.707107 898.171 1.06445)" stroke="#ECECEC"/>
<line y1="-0.5" x2="30" y2="-0.5" transform="matrix(-0.707107 0.707107 0.707107 0.707107 886.171 1.06445)" stroke="#ECECEC"/>
<line y1="-0.5" x2="30" y2="-0.5" transform="matrix(-0.707107 0.707107 0.707107 0.707107 874.171 1.06445)" stroke="#ECECEC"/>
<line y1="-0.5" x2="30" y2="-0.5" transform="matrix(-0.707107 0.707107 0.707107 0.707107 862.171 1.06445)" stroke="#ECECEC"/>
<line y1="-0.5" x2="30" y2="-0.5" transform="matrix(-0.707107 0.707107 0.707107 0.707107 850.171 1.06445)" stroke="#ECECEC"/>
<line y1="-0.5" x2="30" y2="-0.5" transform="matrix(-0.707107 0.707107 0.707107 0.707107 838.171 1.06445)" stroke="#ECECEC"/>
<line y1="-0.5" x2="30" y2="-0.5" transform="matrix(-0.707107 0.707107 0.707107 0.707107 826.171 1.06445)" stroke="#ECECEC"/>
<line y1="-0.5" x2="30" y2="-0.5" transform="matrix(-0.707107 0.707107 0.707107 0.707107 814.171 1.06445)" stroke="#ECECEC"/>
<line y1="-0.5" x2="30" y2="-0.5" transform="matrix(-0.707107 0.707107 0.707107 0.707107 802.171 1.06445)" stroke="#ECECEC"/>
<line y1="-0.5" x2="30" y2="-0.5" transform="matrix(-0.707107 0.707107 0.707107 0.707107 790.171 1.06445)" stroke="#ECECEC"/>
<line y1="-0.5" x2="30" y2="-0.5" transform="matrix(-0.707107 0.707107 0.707107 0.707107 778.171 1.06445)" stroke="#ECECEC"/>
<line y1="-0.5" x2="30" y2="-0.5" transform="matrix(-0.707107 0.707107 0.707107 0.707107 766.171 1.06445)" stroke="#ECECEC"/>
<line y1="-0.5" x2="30" y2="-0.5" transform="matrix(-0.707107 0.707107 0.707107 0.707107 754.171 1.06445)" stroke="#ECECEC"/>
<line y1="-0.5" x2="30" y2="-0.5" transform="matrix(-0.707107 0.707107 0.707107 0.707107 742.171 1.06445)" stroke="#ECECEC"/>
<line y1="-0.5" x2="30" y2="-0.5" transform="matrix(-0.707107 0.707107 0.707107 0.707107 730.171 1.06445)" stroke="#ECECEC"/>
<line y1="-0.5" x2="30" y2="-0.5" transform="matrix(-0.707107 0.707107 0.707107 0.707107 718.171 1.06445)" stroke="#ECECEC"/>
<line y1="-0.5" x2="30" y2="-0.5" transform="matrix(-0.707107 0.707107 0.707107 0.707107 706.171 1.06445)" stroke="#ECECEC"/>
<line y1="-0.5" x2="30" y2="-0.5" transform="matrix(-0.707107 0.707107 0.707107 0.707107 694.171 1.06445)" stroke="#ECECEC"/>
<line y1="-0.5" x2="30" y2="-0.5" transform="matrix(-0.707107 0.707107 0.707107 0.707107 682.171 1.06445)" stroke="#ECECEC"/>
<line y1="-0.5" x2="30" y2="-0.5" transform="matrix(-0.707107 0.707107 0.707107 0.707107 670.171 1.06445)" stroke="#ECECEC"/>
<line y1="-0.5" x2="30" y2="-0.5" transform="matrix(-0.707107 0.707107 0.707107 0.707107 658.171 1.06445)" stroke="#ECECEC"/>
<line y1="-0.5" x2="30" y2="-0.5" transform="matrix(-0.707107 0.707107 0.707107 0.707107 646.171 1.06445)" stroke="#ECECEC"/>
<line y1="-0.5" x2="30" y2="-0.5" transform="matrix(-0.707107 0.707107 0.707107 0.707107 634.171 1.06445)" stroke="#ECECEC"/>
<line y1="-0.5" x2="30" y2="-0.5" transform="matrix(-0.707107 0.707107 0.707107 0.707107 622.171 1.06445)" stroke="#ECECEC"/>
<line y1="-0.5" x2="30" y2="-0.5" transform="matrix(-0.707107 0.707107 0.707107 0.707107 610.171 1.06445)" stroke="#ECECEC"/>
<line y1="-0.5" x2="30" y2="-0.5" transform="matrix(-0.707107 0.707107 0.707107 0.707107 598.171 1.06445)" stroke="#ECECEC"/>
<line y1="-0.5" x2="30" y2="-0.5" transform="matrix(-0.707107 0.707107 0.707107 0.707107 586.171 1.06445)" stroke="#ECECEC"/>
<line y1="-0.5" x2="30" y2="-0.5" transform="matrix(-0.707107 0.707107 0.707107 0.707107 574.171 1.06445)" stroke="#ECECEC"/>
<line y1="-0.5" x2="30" y2="-0.5" transform="matrix(-0.707107 0.707107 0.707107 0.707107 562.171 1.06445)" stroke="#ECECEC"/>
<line y1="-0.5" x2="30" y2="-0.5" transform="matrix(-0.707107 0.707107 0.707107 0.707107 550.171 1.06445)" stroke="#ECECEC"/>
<line y1="-0.5" x2="30" y2="-0.5" transform="matrix(-0.707107 0.707107 0.707107 0.707107 538.171 1.06445)" stroke="#ECECEC"/>
<line y1="-0.5" x2="30" y2="-0.5" transform="matrix(-0.707107 0.707107 0.707107 0.707107 526.171 1.06445)" stroke="#ECECEC"/>
<line y1="-0.5" x2="30" y2="-0.5" transform="matrix(-0.707107 0.707107 0.707107 0.707107 514.171 1.06445)" stroke="#ECECEC"/>
<line y1="-0.5" x2="30" y2="-0.5" transform="matrix(-0.707107 0.707107 0.707107 0.707107 502.171 1.06445)" stroke="#ECECEC"/>
<line y1="-0.5" x2="30" y2="-0.5" transform="matrix(-0.707107 0.707107 0.707107 0.707107 490.171 1.06445)" stroke="#ECECEC"/>
<line y1="-0.5" x2="30" y2="-0.5" transform="matrix(-0.707107 0.707107 0.707107 0.707107 478.171 1.06445)" stroke="#ECECEC"/>
<line y1="-0.5" x2="30" y2="-0.5" transform="matrix(-0.707107 0.707107 0.707107 0.707107 466.171 1.06445)" stroke="#ECECEC"/>
<line y1="-0.5" x2="30" y2="-0.5" transform="matrix(-0.707107 0.707107 0.707107 0.707107 454.171 1.06445)" stroke="#ECECEC"/>
<line y1="-0.5" x2="30" y2="-0.5" transform="matrix(-0.707107 0.707107 0.707107 0.707107 442.171 1.06445)" stroke="#ECECEC"/>
<line y1="-0.5" x2="30" y2="-0.5" transform="matrix(-0.707107 0.707107 0.707107 0.707107 430.171 1.06445)" stroke="#ECECEC"/>
<line y1="-0.5" x2="30" y2="-0.5" transform="matrix(-0.707107 0.707107 0.707107 0.707107 418.171 1.06445)" stroke="#ECECEC"/>
<line y1="-0.5" x2="30" y2="-0.5" transform="matrix(-0.707107 0.707107 0.707107 0.707107 406.171 1.06445)" stroke="#ECECEC"/>
<line y1="-0.5" x2="30" y2="-0.5" transform="matrix(-0.707107 0.707107 0.707107 0.707107 394.171 1.06445)" stroke="#ECECEC"/>
<line y1="-0.5" x2="30" y2="-0.5" transform="matrix(-0.707107 0.707107 0.707107 0.707107 382.171 1.06445)" stroke="#ECECEC"/>
<line y1="-0.5" x2="30" y2="-0.5" transform="matrix(-0.707107 0.707107 0.707107 0.707107 370.171 1.06445)" stroke="#ECECEC"/>
<line y1="-0.5" x2="30" y2="-0.5" transform="matrix(-0.707107 0.707107 0.707107 0.707107 358.172 1.06445)" stroke="#ECECEC"/>
<line y1="-0.5" x2="30" y2="-0.5" transform="matrix(-0.707107 0.707107 0.707107 0.707107 346.174 1.06445)" stroke="#ECECEC"/>
<line y1="-0.5" x2="30" y2="-0.5" transform="matrix(-0.707107 0.707107 0.707107 0.707107 334.175 1.06445)" stroke="#ECECEC"/>
<line y1="-0.5" x2="30" y2="-0.5" transform="matrix(-0.707107 0.707107 0.707107 0.707107 322.177 1.06445)" stroke="#ECECEC"/>
<line y1="-0.5" x2="30" y2="-0.5" transform="matrix(-0.707107 0.707107 0.707107 0.707107 310.178 1.06445)" stroke="#ECECEC"/>
<line y1="-0.5" x2="30" y2="-0.5" transform="matrix(-0.707107 0.707107 0.707107 0.707107 298.18 1.06445)" stroke="#ECECEC"/>
<line y1="-0.5" x2="30" y2="-0.5" transform="matrix(-0.707107 0.707107 0.707107 0.707107 286.181 1.06445)" stroke="#ECECEC"/>
<line y1="-0.5" x2="30" y2="-0.5" transform="matrix(-0.707107 0.707107 0.707107 0.707107 274.183 1.06445)" stroke="#ECECEC"/>
<line y1="-0.5" x2="30" y2="-0.5" transform="matrix(-0.707107 0.707107 0.707107 0.707107 262.184 1.06445)" stroke="#ECECEC"/>
<line y1="-0.5" x2="30" y2="-0.5" transform="matrix(-0.707107 0.707107 0.707107 0.707107 250.186 1.06445)" stroke="#ECECEC"/>
<line y1="-0.5" x2="30" y2="-0.5" transform="matrix(-0.707107 0.707107 0.707107 0.707107 238.187 1.06445)" stroke="#ECECEC"/>
<line y1="-0.5" x2="30" y2="-0.5" transform="matrix(-0.707107 0.707107 0.707107 0.707107 226.188 1.06445)" stroke="#ECECEC"/>
<line y1="-0.5" x2="30" y2="-0.5" transform="matrix(-0.707107 0.707107 0.707107 0.707107 214.189 1.06445)" stroke="#ECECEC"/>
<line y1="-0.5" x2="30" y2="-0.5" transform="matrix(-0.707107 0.707107 0.707107 0.707107 202.191 1.06445)" stroke="#ECECEC"/>
<line y1="-0.5" x2="30" y2="-0.5" transform="matrix(-0.707107 0.707107 0.707107 0.707107 190.192 1.06445)" stroke="#ECECEC"/>
<line y1="-0.5" x2="30" y2="-0.5" transform="matrix(-0.707107 0.707107 0.707107 0.707107 178.194 1.06445)" stroke="#ECECEC"/>
<line y1="-0.5" x2="30" y2="-0.5" transform="matrix(-0.707107 0.707107 0.707107 0.707107 166.195 1.06445)" stroke="#ECECEC"/>
<line y1="-0.5" x2="30" y2="-0.5" transform="matrix(-0.707107 0.707107 0.707107 0.707107 154.197 1.06445)" stroke="#ECECEC"/>
<line y1="-0.5" x2="30" y2="-0.5" transform="matrix(-0.707107 0.707107 0.707107 0.707107 142.198 1.06445)" stroke="#ECECEC"/>
<line y1="-0.5" x2="30" y2="-0.5" transform="matrix(-0.707107 0.707107 0.707107 0.707107 130.2 1.06445)" stroke="#ECECEC"/>
<line y1="-0.5" x2="30" y2="-0.5" transform="matrix(-0.707107 0.707107 0.707107 0.707107 118.201 1.06445)" stroke="#ECECEC"/>
<line y1="-0.5" x2="30" y2="-0.5" transform="matrix(-0.707107 0.707107 0.707107 0.707107 106.203 1.06445)" stroke="#ECECEC"/>
<line y1="-0.5" x2="30" y2="-0.5" transform="matrix(-0.707107 0.707107 0.707107 0.707107 94.2041 1.06445)" stroke="#ECECEC"/>
<line y1="-0.5" x2="30" y2="-0.5" transform="matrix(-0.707107 0.707107 0.707107 0.707107 82.2061 1.06445)" stroke="#ECECEC"/>
<line y1="-0.5" x2="30" y2="-0.5" transform="matrix(-0.707107 0.707107 0.707107 0.707107 70.207 1.06445)" stroke="#ECECEC"/>
<line y1="-0.5" x2="30" y2="-0.5" transform="matrix(-0.707107 0.707107 0.707107 0.707107 58.209 1.06445)" stroke="#ECECEC"/>
<line y1="-0.5" x2="30" y2="-0.5" transform="matrix(-0.707107 0.707107 0.707107 0.707107 46.2104 1.06445)" stroke="#ECECEC"/>
<line y1="-0.5" x2="30" y2="-0.5" transform="matrix(-0.707107 0.707107 0.707107 0.707107 34.2119 1.06445)" stroke="#ECECEC"/>
<line y1="-0.5" x2="30" y2="-0.5" transform="matrix(-0.707107 0.707107 0.707107 0.707107 22.2134 1.06445)" stroke="#ECECEC"/>
<line x1="10.5049" y1="1.35355" x2="1.37616" y2="10.4823" stroke="#ECECEC"/>
</svg>
