<svg width="189" height="40" viewBox="0 0 189 40" fill="none" xmlns="http://www.w3.org/2000/svg">
<g clip-path="url(#clip0_294_610)">
<path d="M62.8325 16.7908V13.3859C63.4276 13.8912 64.1082 14.286 64.8422 14.5518C65.5451 14.8074 66.287 14.9391 67.035 14.9411C67.4157 14.9473 67.7958 14.9078 68.1671 14.8232C68.4525 14.7606 68.7256 14.6511 68.9752 14.4992C69.1748 14.3795 69.3413 14.2116 69.4592 14.0109C69.5659 13.8246 69.6211 13.6133 69.6191 13.3986C69.6229 13.1122 69.5336 12.8322 69.3645 12.601C69.1714 12.3465 68.9357 12.1272 68.668 11.9529C68.3342 11.7319 67.9822 11.5397 67.6158 11.3784C67.2117 11.1932 66.774 11.0059 66.3069 10.8144C65.1158 10.3178 64.2277 9.711 63.6427 8.99411C63.0514 8.26084 62.7403 7.34107 62.7652 6.39942C62.7459 5.6872 62.9104 4.98202 63.2429 4.35186C63.5587 3.78489 64.0052 3.30151 64.5455 2.94192C65.1292 2.55945 65.7761 2.28371 66.4563 2.12753C67.2095 1.95152 67.9808 1.86464 68.7542 1.86869C69.4583 1.86216 70.1619 1.91 70.8586 2.01179C71.4382 2.09781 72.0069 2.24597 72.5547 2.45371V5.63132C72.2896 5.44924 72.0078 5.29282 71.713 5.16415C71.4115 5.02949 71.1007 4.91696 70.7829 4.82745C70.4707 4.74029 70.1529 4.67489 69.8317 4.63174C69.5339 4.59094 69.2337 4.56985 68.9331 4.56861C68.5751 4.56448 68.2177 4.60191 67.8683 4.68014C67.5838 4.74024 67.3108 4.84614 67.0602 4.99369C66.8554 5.11435 66.6806 5.27982 66.5489 5.4777C66.4284 5.66605 66.3655 5.88545 66.3679 6.10901C66.367 6.35371 66.4404 6.5929 66.5783 6.79504C66.7373 7.01813 66.9347 7.21122 67.1612 7.36532C67.4474 7.56718 67.7501 7.74457 68.0661 7.89563C68.4225 8.07099 68.823 8.25057 69.2677 8.43435C69.8359 8.67122 70.3871 8.94684 70.9175 9.25926C71.3764 9.5259 71.797 9.85368 72.1675 10.2336C72.5123 10.5903 72.7833 11.0115 72.9651 11.4731C73.1557 11.99 73.2464 12.5385 73.2324 13.0892C73.2568 13.833 73.0902 14.5705 72.7484 15.2315C72.4329 15.801 71.9809 16.2833 71.4331 16.6351C70.8428 17.009 70.1887 17.2708 69.5034 17.4074C68.742 17.5656 67.9662 17.6439 67.1886 17.641C66.3876 17.6446 65.5881 17.5742 64.8001 17.4306C64.1173 17.3116 63.4548 17.0962 62.8325 16.7908Z" fill="black"/>
<path d="M93.2555 4.91793H88.9036V17.3758H85.4587V4.91793H81.1279V2.12122H93.2555V4.91793Z" fill="black"/>
<path d="M113.998 17.3758H110.252L109.168 13.9815H103.745L102.67 17.3758H98.9453L104.499 2.12122H108.573L113.998 17.3758ZM108.375 11.3426L106.736 6.21633C106.603 5.76784 106.517 5.30652 106.481 4.84007H106.395C106.359 5.29227 106.27 5.73866 106.13 6.17004L104.478 11.3426H108.375Z" fill="black"/>
<path d="M131.89 4.91793H127.538V17.3758H124.091V4.91793H119.763V2.12122H131.89V4.91793Z" fill="black"/>
<path d="M144.175 17.3758H140.738V2.12122H144.175V17.3758Z" fill="black"/>
<path d="M167.119 17.3758H162.78L158.334 10.7471C158.177 10.4776 158.042 10.1961 157.929 9.90531H157.875V17.3758H154.44V2.12122H157.875V9.33292H157.929C158.014 9.1351 158.154 8.85452 158.35 8.49117L162.559 2.12963H166.667L161.343 9.39605L167.119 17.3758Z" fill="black"/>
<path d="M188.788 17.3758H185.042L183.958 13.9815H178.533L177.458 17.3758H173.735L179.293 2.12122H183.367L188.788 17.3758ZM183.171 11.3426L181.532 6.21633C181.399 5.76784 181.314 5.30652 181.277 4.84007H181.187C181.15 5.29235 181.061 5.73874 180.92 6.17004L179.268 11.3426H183.171Z" fill="black"/>
<path d="M66.7699 37.9735H66.288L62.8999 28.6911H63.6175L66.3027 36.1679C66.4096 36.4531 66.4899 36.7476 66.5426 37.0476H66.5699C66.6364 36.7434 66.7251 36.4445 66.8351 36.1532L69.6886 28.6911H70.3747L66.7699 37.9735Z" fill="black"/>
<path d="M85.2631 37.9735L84.2004 35.0863H80.1769L79.1141 37.9735H78.4092L81.9109 28.6911H82.5211L85.9828 37.9735H85.2631ZM82.4138 30.2062C82.3681 30.0808 82.3295 29.953 82.2981 29.8232C82.2686 29.7159 82.2349 29.6128 82.2013 29.4992H82.1739C82.1184 29.7341 82.0481 29.9654 81.9635 30.1915L80.4041 34.497H83.9816L82.4138 30.2062Z" fill="black"/>
<path d="M96.0918 37.9735V28.6911H96.7231V37.3906H100.446V37.9735H96.0918Z" fill="black"/>
<path d="M117.327 37.9735L116.275 35.0863H112.241L111.189 37.9735H110.479L113.981 28.6911H114.589L118.055 37.9735H117.327ZM114.478 30.2062C114.432 30.0808 114.393 29.953 114.362 29.8232C114.331 29.7159 114.299 29.6128 114.265 29.4992H114.238C114.181 29.7339 114.111 29.965 114.027 30.1915L112.468 34.497H116.046L114.478 30.2062Z" fill="black"/>
<path d="M127.866 37.6431V36.9108C128.465 37.3118 129.166 37.5311 129.886 37.5421C130.61 37.5421 131.162 37.3906 131.536 37.0918C131.723 36.9407 131.872 36.7476 131.97 36.5281C132.068 36.3087 132.112 36.0692 132.1 35.8291C132.122 35.4161 131.987 35.0102 131.721 34.6928C131.469 34.4122 130.922 34.0271 130.08 33.5375C129.139 32.9889 128.543 32.5302 128.293 32.1612C128.041 31.7838 127.91 31.3379 127.919 30.8839C127.916 30.5663 127.982 30.252 128.114 29.9632C128.246 29.6744 128.44 29.4183 128.683 29.213C129.192 28.7556 129.871 28.527 130.72 28.527C131.284 28.5289 131.844 28.6227 132.378 28.8047V29.4781C131.831 29.2315 131.238 29.1059 130.638 29.1099C130.096 29.0808 129.562 29.2507 129.137 29.5876C128.96 29.7362 128.818 29.9228 128.722 30.1337C128.626 30.3446 128.579 30.5744 128.584 30.806C128.562 31.2177 128.698 31.6223 128.963 31.9382C129.215 32.2187 129.76 32.6003 130.598 33.0829C131.465 33.5754 132.042 34.0124 132.33 34.394C132.612 34.7745 132.76 35.2378 132.75 35.7113C132.762 36.0382 132.701 36.3636 132.573 36.6646C132.445 36.9656 132.253 37.2349 132.01 37.4537C131.516 37.9013 130.814 38.1257 129.905 38.1271C129.533 38.1199 129.163 38.0697 128.803 37.9777C128.477 37.9098 128.161 37.7972 127.866 37.6431ZM130.629 27.8304H130.339L128.914 25.6545H129.472L130.495 27.2075L131.53 25.6545H132.06L130.629 27.8304Z" fill="black"/>
<path d="M143.775 28.0303H143.194L144.707 25.907H145.381L143.775 28.0303ZM143.285 37.9735V28.6911H143.916V37.9735H143.285Z" fill="black"/>
<path d="M159.621 37.9735L155.667 33.5332C155.606 33.4703 155.553 33.3995 155.511 33.3228H155.486V37.9777H154.854V28.6911H155.486V33.0661H155.513C155.559 32.9837 155.615 32.9079 155.682 32.8409L159.436 28.6911H160.277L156.205 33.1902L160.53 37.9735H159.621Z" fill="black"/>
<path d="M21.2352 0.0294495L16.5361 8.86783L33.0681 39.9726L37.7861 31.1006L21.2352 0.0294495Z" fill="#585554"/>
<path d="M28.207 9.48444H49.2803L38.75 29.2845L28.207 9.48444Z" fill="#4FBC9C"/>
<path d="M54.3224 0L50.2841 7.59259H27.2012L23.1797 0.0294613L54.3224 0Z" fill="#CFCCC5"/>
<path d="M4.01936 32.4053L0 39.9663L31.1974 40L27.1591 32.4053H4.01936Z" fill="black"/>
</g>
<defs>
<clipPath id="clip0_294_610">
<rect width="188.788" height="40" fill="white"/>
</clipPath>
</defs>
</svg>
