<svg width="850" height="131" viewBox="0 0 850 131" fill="none" xmlns="http://www.w3.org/2000/svg">
<line x1="0.353553" y1="120.646" x2="9.56676" y2="129.86" stroke="#ECECEC"/>
<line x1="0.353553" y1="108.646" x2="21.5668" y2="129.86" stroke="#ECECEC"/>
<line x1="12.3536" y1="108.646" x2="33.5668" y2="129.86" stroke="#ECECEC"/>
<line x1="24.3536" y1="108.646" x2="45.5668" y2="129.86" stroke="#ECECEC"/>
<line x1="36.3536" y1="108.646" x2="57.5668" y2="129.86" stroke="#ECECEC"/>
<line x1="48.3536" y1="108.646" x2="69.5668" y2="129.86" stroke="#ECECEC"/>
<line x1="60.3536" y1="108.646" x2="81.5668" y2="129.86" stroke="#ECECEC"/>
<line x1="72.3536" y1="108.646" x2="93.5668" y2="129.86" stroke="#ECECEC"/>
<line x1="84.3536" y1="108.646" x2="105.567" y2="129.86" stroke="#ECECEC"/>
<line x1="96.3536" y1="108.646" x2="117.567" y2="129.86" stroke="#ECECEC"/>
<line x1="108.354" y1="108.646" x2="129.567" y2="129.86" stroke="#ECECEC"/>
<line x1="120.354" y1="108.646" x2="141.567" y2="129.86" stroke="#ECECEC"/>
<line x1="132.354" y1="108.646" x2="153.567" y2="129.86" stroke="#ECECEC"/>
<line x1="144.354" y1="108.646" x2="165.567" y2="129.86" stroke="#ECECEC"/>
<line x1="156.354" y1="108.646" x2="177.567" y2="129.86" stroke="#ECECEC"/>
<line x1="168.354" y1="108.646" x2="189.567" y2="129.86" stroke="#ECECEC"/>
<line x1="180.354" y1="108.646" x2="201.567" y2="129.86" stroke="#ECECEC"/>
<line x1="192.354" y1="108.646" x2="213.567" y2="129.86" stroke="#ECECEC"/>
<line x1="204.354" y1="108.646" x2="225.567" y2="129.86" stroke="#ECECEC"/>
<line x1="216.354" y1="108.646" x2="237.567" y2="129.86" stroke="#ECECEC"/>
<line x1="228.354" y1="108.646" x2="249.567" y2="129.86" stroke="#ECECEC"/>
<line x1="240.354" y1="108.646" x2="261.567" y2="129.86" stroke="#ECECEC"/>
<line x1="252.354" y1="108.646" x2="273.567" y2="129.86" stroke="#ECECEC"/>
<line x1="264.354" y1="108.646" x2="285.567" y2="129.86" stroke="#ECECEC"/>
<line x1="276.354" y1="108.646" x2="297.567" y2="129.86" stroke="#ECECEC"/>
<line x1="288.354" y1="108.646" x2="309.567" y2="129.86" stroke="#ECECEC"/>
<line x1="300.354" y1="108.646" x2="321.567" y2="129.86" stroke="#ECECEC"/>
<line x1="312.354" y1="108.646" x2="333.567" y2="129.86" stroke="#ECECEC"/>
<line x1="324.354" y1="108.646" x2="345.567" y2="129.86" stroke="#ECECEC"/>
<line x1="336.354" y1="108.646" x2="357.567" y2="129.86" stroke="#ECECEC"/>
<line x1="348.354" y1="108.646" x2="369.567" y2="129.86" stroke="#ECECEC"/>
<line x1="360.354" y1="108.646" x2="381.567" y2="129.86" stroke="#ECECEC"/>
<line x1="372.354" y1="108.646" x2="393.567" y2="129.86" stroke="#ECECEC"/>
<line x1="384.354" y1="108.646" x2="405.567" y2="129.86" stroke="#ECECEC"/>
<line x1="396.354" y1="108.646" x2="417.567" y2="129.86" stroke="#ECECEC"/>
<line x1="408.354" y1="108.646" x2="429.567" y2="129.86" stroke="#ECECEC"/>
<line x1="420.354" y1="108.646" x2="441.567" y2="129.86" stroke="#ECECEC"/>
<line x1="432.354" y1="108.646" x2="453.567" y2="129.86" stroke="#ECECEC"/>
<line x1="444.354" y1="108.646" x2="465.567" y2="129.86" stroke="#ECECEC"/>
<line x1="456.354" y1="108.646" x2="477.567" y2="129.86" stroke="#ECECEC"/>
<line x1="468.354" y1="108.646" x2="489.567" y2="129.86" stroke="#ECECEC"/>
<line x1="480.354" y1="108.646" x2="501.567" y2="129.86" stroke="#ECECEC"/>
<line x1="492.354" y1="108.646" x2="513.567" y2="129.86" stroke="#ECECEC"/>
<line x1="504.354" y1="108.646" x2="525.567" y2="129.86" stroke="#ECECEC"/>
<line x1="516.354" y1="108.646" x2="537.567" y2="129.86" stroke="#ECECEC"/>
<line x1="528.354" y1="108.646" x2="549.567" y2="129.86" stroke="#ECECEC"/>
<line x1="540.354" y1="108.646" x2="561.567" y2="129.86" stroke="#ECECEC"/>
<line x1="552.354" y1="108.646" x2="573.567" y2="129.86" stroke="#ECECEC"/>
<line x1="564.354" y1="108.646" x2="585.567" y2="129.86" stroke="#ECECEC"/>
<line x1="576.354" y1="108.646" x2="597.567" y2="129.86" stroke="#ECECEC"/>
<line x1="588.354" y1="108.646" x2="609.567" y2="129.86" stroke="#ECECEC"/>
<line x1="600.354" y1="108.646" x2="621.567" y2="129.86" stroke="#ECECEC"/>
<line x1="612.354" y1="108.646" x2="633.567" y2="129.86" stroke="#ECECEC"/>
<line x1="624.354" y1="108.646" x2="645.567" y2="129.86" stroke="#ECECEC"/>
<line x1="636.354" y1="108.646" x2="657.567" y2="129.86" stroke="#ECECEC"/>
<line x1="648.354" y1="108.646" x2="669.567" y2="129.86" stroke="#ECECEC"/>
<line x1="660.354" y1="108.646" x2="681.567" y2="129.86" stroke="#ECECEC"/>
<line x1="672.354" y1="108.646" x2="693.567" y2="129.86" stroke="#ECECEC"/>
<line x1="684.354" y1="108.646" x2="705.567" y2="129.86" stroke="#ECECEC"/>
<line x1="696.354" y1="108.646" x2="717.567" y2="129.86" stroke="#ECECEC"/>
<line x1="708.354" y1="108.646" x2="729.567" y2="129.86" stroke="#ECECEC"/>
<line x1="720.354" y1="108.646" x2="741.567" y2="129.86" stroke="#ECECEC"/>
<line x1="732.354" y1="108.646" x2="753.567" y2="129.86" stroke="#ECECEC"/>
<line x1="744.354" y1="108.646" x2="765.567" y2="129.86" stroke="#ECECEC"/>
<line x1="756.354" y1="108.646" x2="777.567" y2="129.86" stroke="#ECECEC"/>
<line x1="768.354" y1="108.646" x2="789.567" y2="129.86" stroke="#ECECEC"/>
<line x1="780.354" y1="108.646" x2="801.567" y2="129.86" stroke="#ECECEC"/>
<line x1="792.354" y1="108.646" x2="813.567" y2="129.86" stroke="#ECECEC"/>
<line x1="804.354" y1="108.646" x2="825.567" y2="129.86" stroke="#ECECEC"/>
<line x1="816.354" y1="108.646" x2="837.567" y2="129.86" stroke="#ECECEC"/>
<line x1="828.354" y1="108.646" x2="849.567" y2="129.86" stroke="#ECECEC"/>
<line x1="828.354" y1="96.6464" x2="849.567" y2="117.86" stroke="#ECECEC"/>
<line x1="828.354" y1="84.6464" x2="849.567" y2="105.86" stroke="#ECECEC"/>
<line x1="828.354" y1="72.6464" x2="849.567" y2="93.8596" stroke="#ECECEC"/>
<line x1="828.354" y1="60.6464" x2="849.567" y2="81.8596" stroke="#ECECEC"/>
<line x1="828.354" y1="48.6464" x2="849.567" y2="69.8596" stroke="#ECECEC"/>
<line x1="828.354" y1="36.6464" x2="849.567" y2="57.8596" stroke="#ECECEC"/>
<line x1="828.354" y1="24.6464" x2="849.567" y2="45.8596" stroke="#ECECEC"/>
<line x1="828.354" y1="12.6464" x2="849.567" y2="33.8596" stroke="#ECECEC"/>
<line x1="828.354" y1="0.646447" x2="849.567" y2="21.8596" stroke="#ECECEC"/>
</svg>
